<svg xmlns="http://www.w3.org/2000/svg" viewBox="-10 0 140 164" fill="none"
  stroke="#38412f" stroke-width="3.4" stroke-linecap="round" stroke-linejoin="round">
  <path d="M 30 78 L 92 78 L 92 150 L 74 150 L 74 126 L 48 126 L 48 150 L 30 150 Z" fill="#edefe1"/>
  
  <g fill="#edefe1"><path d="M 48 86 L 76 86 L 79 106 L 45 106 Z"/><path d="M 42 106 L 82 106 L 85 116 L 39 116 Z"/></g>
  <path d="M 25.2 91.3 L 13.6 111.6 L 44.3 120.8 L 47.7 107.2 L 30.4 104.4 L 34.8 96.7" fill="#edefe1"/>
  <path d="M 87.2 96.7 L 91.6 104.4 L 74.3 107.2 L 77.7 120.8 L 108.4 111.6 L 96.8 91.3" fill="#edefe1"/>
  <path d="M 39 18 C 37 9 31 6 29 11" stroke="#edefe1" stroke-width="6"/>
  <path d="M 81 18 C 83 9 89 6 91 11" stroke="#edefe1" stroke-width="6"/>
  <path d="M 39 18 C 37 9 31 6 29 11"/>
  <path d="M 81 18 C 83 9 89 6 91 11"/>
  <rect x="18" y="16" width="84" height="58" rx="3" fill="#edefe1"/>
  <ellipse cx="45" cy="38" rx="13" ry="15"/><ellipse cx="79" cy="38" rx="13" ry="15"/><circle cx="45" cy="38" r="5" fill="#38412f" stroke="none"/><circle cx="79" cy="38" r="5" fill="#38412f" stroke="none"/>
  <g stroke-width="2.6">
    <path d="M 25 53 L 26 60"/><path d="M 30 52 L 31 60"/><path d="M 35 53 L 36 60"/>
    <path d="M 87 53 L 88 60"/><path d="M 92 52 L 93 60"/><path d="M 97 53 L 98 60"/>
  </g>
  <path d="M 51 59 Q 62 69 72 61"/><path d="M 72 61 L 73 51"/>
  
</svg>